{
	"asset":{
		"generator":"Khronos glTF Blender I/O v4.0.44",
		"version":"2.0"
	},
	"scene":0,
	"scenes":[
		{
			"name":"Scene",
			"nodes":[
				0,
				1,
				2,
				3,
				4,
				5,
				6,
				7,
				8,
				9
			]
		}
	],
	"nodes":[
		{
			"mesh":0,
			"name":"SOL"
		},
		{
			"mesh":1,
			"name":"MERCURIO",
			"scale":[
				2,
				2,
				2
			],
			"translation":[
				-0.22398389875888824,
				0,
				-0.6893603801727295
			]
		},
		{
			"mesh":2,
			"name":"VENUS",
			"scale":[
				2,
				2,
				2
			],
			"translation":[
				-0.736599862575531,
				0,
				-0.386569082736969
			]
		},
		{
			"mesh":3,
			"name":"TIERRA",
			"scale":[
				2,
				2,
				2
			],
			"translation":[
				-1.1040369272232056,
				0,
				-0.34054285287857056
			]
		},
		{
			"mesh":4,
			"name":"MARTE",
			"scale":[
				2,
				2,
				2
			],
			"translation":[
				-1.5294736623764038,
				0,
				-0.09624099731445312
			]
		},
		{
			"mesh":5,
			"name":"JUPITER",
			"translation":[
				-2.3038220405578613,
				0,
				-0.05885552614927292
			]
		},
		{
			"mesh":6,
			"name":"SATURNO",
			"translation":[
				-3.4173049926757812,
				0,
				-0.03513118252158165
			]
		},
		{
			"mesh":7,
			"name":"URANO",
			"translation":[
				-5.6008219718933105,
				0,
				-0.02019166573882103
			]
		},
		{
			"mesh":8,
			"name":"NEPTUNO",
			"translation":[
				-7.760790824890137,
				0,
				-0.014254708774387836
			]
		},
		{
			"mesh":9,
			"name":"PLUTON",
			"translation":[
				-8.461343765258789,
				0,
				-0.010344397276639938
			]
		}
	],
	"materials":[
		{
			"doubleSided":true,
			"emissiveFactor":[
				1,
				1,
				1
			],
			"emissiveTexture":{
				"index":0
			},
			"name":"SOLMAT",
			"pbrMetallicRoughness":{
				"baseColorTexture":{
					"index":1
				},
				"metallicFactor":0,
				"roughnessFactor":0.5
			}
		},
		{
			"doubleSided":true,
			"name":"MERCURIOMAT",
			"pbrMetallicRoughness":{
				"baseColorFactor":[
					0.2826613783836365,
					0.2826613783836365,
					0.2826613783836365,
					1
				],
				"metallicFactor":0,
				"roughnessFactor":0.5
			}
		},
		{
			"doubleSided":true,
			"name":"VENUSMAT",
			"pbrMetallicRoughness":{
				"baseColorFactor":[
					0.7529380321502686,
					0.48515039682388306,
					0.19461794197559357,
					1
				],
				"metallicFactor":0,
				"roughnessFactor":0.5
			}
		},
		{
			"doubleSided":true,
			"name":"TIERRAMAT",
			"pbrMetallicRoughness":{
				"baseColorTexture":{
					"index":2
				},
				"metallicFactor":0,
				"roughnessFactor":0.5
			}
		},
		{
			"doubleSided":true,
			"name":"MARTEMAT",
			"pbrMetallicRoughness":{
				"baseColorFactor":[
					0.6938680410385132,
					0.14995987713336945,
					0.05951130390167236,
					1
				],
				"metallicFactor":0,
				"roughnessFactor":0.5
			}
		},
		{
			"doubleSided":true,
			"name":"JUPITERMAT",
			"pbrMetallicRoughness":{
				"baseColorTexture":{
					"index":3
				},
				"metallicFactor":0,
				"roughnessFactor":0.5
			}
		},
		{
			"doubleSided":true,
			"name":"SATURNOMAT",
			"pbrMetallicRoughness":{
				"baseColorTexture":{
					"index":4
				},
				"metallicFactor":0,
				"roughnessFactor":0.5
			}
		},
		{
			"doubleSided":true,
			"name":"URANOMAT",
			"pbrMetallicRoughness":{
				"baseColorFactor":[
					0.24619942903518677,
					0.4620773196220398,
					0.4969331622123718,
					1
				],
				"metallicFactor":0,
				"roughnessFactor":0.5
			}
		},
		{
			"doubleSided":true,
			"name":"NEPTUNOMAT",
			"pbrMetallicRoughness":{
				"baseColorFactor":[
					0.025186533108353615,
					0.04231137037277222,
					0.25818297266960144,
					1
				],
				"metallicFactor":0,
				"roughnessFactor":0.5
			}
		},
		{
			"doubleSided":true,
			"name":"PLUTONMAT",
			"pbrMetallicRoughness":{
				"baseColorFactor":[
					0.22591793537139893,
					0.27509427070617676,
					0.3290278911590576,
					1
				],
				"metallicFactor":0,
				"roughnessFactor":0.5
			}
		}
	],
	"meshes":[
		{
			"name":"Sphere.010",
			"primitives":[
				{
					"attributes":{
						"POSITION":0,
						"NORMAL":1,
						"TEXCOORD_0":2
					},
					"indices":3,
					"material":0
				}
			]
		},
		{
			"name":"Sphere.011",
			"primitives":[
				{
					"attributes":{
						"POSITION":4,
						"NORMAL":5,
						"TEXCOORD_0":6
					},
					"indices":7,
					"material":1
				}
			]
		},
		{
			"name":"Sphere.012",
			"primitives":[
				{
					"attributes":{
						"POSITION":8,
						"NORMAL":9,
						"TEXCOORD_0":10
					},
					"indices":11,
					"material":2
				}
			]
		},
		{
			"name":"Sphere.013",
			"primitives":[
				{
					"attributes":{
						"POSITION":12,
						"NORMAL":13,
						"TEXCOORD_0":14
					},
					"indices":15,
					"material":3
				}
			]
		},
		{
			"name":"Sphere.014",
			"primitives":[
				{
					"attributes":{
						"POSITION":16,
						"NORMAL":17,
						"TEXCOORD_0":18
					},
					"indices":19,
					"material":4
				}
			]
		},
		{
			"name":"Sphere.015",
			"primitives":[
				{
					"attributes":{
						"POSITION":20,
						"NORMAL":21,
						"TEXCOORD_0":22
					},
					"indices":23,
					"material":5
				}
			]
		},
		{
			"name":"Sphere.016",
			"primitives":[
				{
					"attributes":{
						"POSITION":24,
						"NORMAL":25,
						"TEXCOORD_0":26
					},
					"indices":27,
					"material":6
				}
			]
		},
		{
			"name":"Sphere.017",
			"primitives":[
				{
					"attributes":{
						"POSITION":28,
						"NORMAL":29,
						"TEXCOORD_0":30
					},
					"indices":31,
					"material":7
				}
			]
		},
		{
			"name":"Sphere.018",
			"primitives":[
				{
					"attributes":{
						"POSITION":32,
						"NORMAL":33,
						"TEXCOORD_0":34
					},
					"indices":35,
					"material":8
				}
			]
		},
		{
			"name":"Sphere.019",
			"primitives":[
				{
					"attributes":{
						"POSITION":36,
						"NORMAL":37,
						"TEXCOORD_0":38
					},
					"indices":39,
					"material":9
				}
			]
		}
	],
	"textures":[
		{
			"sampler":0,
			"source":0
		},
		{
			"sampler":0,
			"source":0
		},
		{
			"sampler":0,
			"source":1
		},
		{
			"sampler":0,
			"source":2
		},
		{
			"sampler":0,
			"source":3
		}
	],
	"images":[
		{
			"mimeType":"image/jpeg",
			"name":"2k_sun",
			"uri":"2k_sun.jpg"
		},
		{
			"mimeType":"image/jpeg",
			"name":"2k_earth_daymap",
			"uri":"2k_earth_daymap.jpg"
		},
		{
			"mimeType":"image/jpeg",
			"name":"2k_jupiter",
			"uri":"2k_jupiter.jpg"
		},
		{
			"mimeType":"image/jpeg",
			"name":"2k_saturn",
			"uri":"2k_saturn.jpg"
		}
	],
	"accessors":[
		{
			"bufferView":0,
			"componentType":5126,
			"count":31744,
			"max":[
				0.6910616159439087,
				0.6983032822608948,
				0.6910614371299744
			],
			"min":[
				-0.6910613179206848,
				-0.6983032822608948,
				-0.6910616159439087
			],
			"type":"VEC3"
		},
		{
			"bufferView":1,
			"componentType":5126,
			"count":31744,
			"type":"VEC3"
		},
		{
			"bufferView":2,
			"componentType":5126,
			"count":31744,
			"type":"VEC2"
		},
		{
			"bufferView":3,
			"componentType":5123,
			"count":47616,
			"type":"SCALAR"
		},
		{
			"bufferView":4,
			"componentType":5126,
			"count":1984,
			"max":[
				0.002400000113993883,
				0.002400000113993883,
				0.002400000113993883
			],
			"min":[
				-0.002400000113993883,
				-0.002400000113993883,
				-0.002400000113993883
			],
			"type":"VEC3"
		},
		{
			"bufferView":5,
			"componentType":5126,
			"count":1984,
			"type":"VEC3"
		},
		{
			"bufferView":6,
			"componentType":5126,
			"count":1984,
			"type":"VEC2"
		},
		{
			"bufferView":7,
			"componentType":5123,
			"count":2880,
			"type":"SCALAR"
		},
		{
			"bufferView":8,
			"componentType":5126,
			"count":1984,
			"max":[
				0.0059999991208314896,
				0.006000000052154064,
				0.005999997723847628
			],
			"min":[
				-0.005999996792525053,
				-0.006000000052154064,
				-0.006000000052154064
			],
			"type":"VEC3"
		},
		{
			"bufferView":9,
			"componentType":5126,
			"count":1984,
			"type":"VEC3"
		},
		{
			"bufferView":10,
			"componentType":5126,
			"count":1984,
			"type":"VEC2"
		},
		{
			"bufferView":11,
			"componentType":5123,
			"count":2880,
			"type":"SCALAR"
		},
		{
			"bufferView":12,
			"componentType":5126,
			"count":7936,
			"max":[
				0.006417003460228443,
				0.006484245881438255,
				0.006417001131922007
			],
			"min":[
				-0.006417001131922007,
				-0.006484245881438255,
				-0.006417002063244581
			],
			"type":"VEC3"
		},
		{
			"bufferView":13,
			"componentType":5126,
			"count":7936,
			"type":"VEC3"
		},
		{
			"bufferView":14,
			"componentType":5126,
			"count":7936,
			"type":"VEC2"
		},
		{
			"bufferView":15,
			"componentType":5123,
			"count":11904,
			"type":"SCALAR"
		},
		{
			"bufferView":16,
			"componentType":5126,
			"count":1984,
			"max":[
				0.0033999993465840816,
				0.0034000000450760126,
				0.0033999986480921507
			],
			"min":[
				-0.0033999974839389324,
				-0.0034000000450760126,
				-0.0034000000450760126
			],
			"type":"VEC3"
		},
		{
			"bufferView":17,
			"componentType":5126,
			"count":1984,
			"type":"VEC3"
		},
		{
			"bufferView":18,
			"componentType":5126,
			"count":1984,
			"type":"VEC2"
		},
		{
			"bufferView":19,
			"componentType":5123,
			"count":2880,
			"type":"SCALAR"
		},
		{
			"bufferView":20,
			"componentType":5126,
			"count":7936,
			"max":[
				0.07108063995838165,
				0.07182550430297852,
				0.07108062505722046
			],
			"min":[
				-0.07108059525489807,
				-0.07182550430297852,
				-0.07108063995838165
			],
			"type":"VEC3"
		},
		{
			"bufferView":21,
			"componentType":5126,
			"count":7936,
			"type":"VEC3"
		},
		{
			"bufferView":22,
			"componentType":5126,
			"count":7936,
			"type":"VEC2"
		},
		{
			"bufferView":23,
			"componentType":5123,
			"count":11904,
			"type":"SCALAR"
		},
		{
			"bufferView":24,
			"componentType":5126,
			"count":8744,
			"max":[
				0.10509376227855682,
				0.05985463038086891,
				0.10509375482797623
			],
			"min":[
				-0.10509376227855682,
				-0.05985463038086891,
				-0.10509379953145981
			],
			"type":"VEC3"
		},
		{
			"bufferView":25,
			"componentType":5126,
			"count":8744,
			"type":"VEC3"
		},
		{
			"bufferView":26,
			"componentType":5126,
			"count":8744,
			"type":"VEC2"
		},
		{
			"bufferView":27,
			"componentType":5123,
			"count":13440,
			"type":"SCALAR"
		},
		{
			"bufferView":28,
			"componentType":5126,
			"count":1984,
			"max":[
				0.024999989196658134,
				0.02500000037252903,
				0.024999981746077538
			],
			"min":[
				-0.02499997615814209,
				-0.02500000037252903,
				-0.02500000037252903
			],
			"type":"VEC3"
		},
		{
			"bufferView":29,
			"componentType":5126,
			"count":1984,
			"type":"VEC3"
		},
		{
			"bufferView":30,
			"componentType":5126,
			"count":1984,
			"type":"VEC2"
		},
		{
			"bufferView":31,
			"componentType":5123,
			"count":2880,
			"type":"SCALAR"
		},
		{
			"bufferView":32,
			"componentType":5126,
			"count":1984,
			"max":[
				0.023999996483325958,
				0.024000000208616257,
				0.02399999089539051
			],
			"min":[
				-0.023999987170100212,
				-0.024000000208616257,
				-0.024000000208616257
			],
			"type":"VEC3"
		},
		{
			"bufferView":33,
			"componentType":5126,
			"count":1984,
			"type":"VEC3"
		},
		{
			"bufferView":34,
			"componentType":5126,
			"count":1984,
			"type":"VEC2"
		},
		{
			"bufferView":35,
			"componentType":5123,
			"count":2880,
			"type":"SCALAR"
		},
		{
			"bufferView":36,
			"componentType":5126,
			"count":1984,
			"max":[
				0.0019999996293336153,
				0.0020000000949949026,
				0.001999999163672328
			],
			"min":[
				-0.001999998465180397,
				-0.0020000000949949026,
				-0.0020000000949949026
			],
			"type":"VEC3"
		},
		{
			"bufferView":37,
			"componentType":5126,
			"count":1984,
			"type":"VEC3"
		},
		{
			"bufferView":38,
			"componentType":5126,
			"count":1984,
			"type":"VEC2"
		},
		{
			"bufferView":39,
			"componentType":5123,
			"count":2880,
			"type":"SCALAR"
		}
	],
	"bufferViews":[
		{
			"buffer":0,
			"byteLength":380928,
			"byteOffset":0,
			"target":34962
		},
		{
			"buffer":0,
			"byteLength":380928,
			"byteOffset":380928,
			"target":34962
		},
		{
			"buffer":0,
			"byteLength":253952,
			"byteOffset":761856,
			"target":34962
		},
		{
			"buffer":0,
			"byteLength":95232,
			"byteOffset":1015808,
			"target":34963
		},
		{
			"buffer":0,
			"byteLength":23808,
			"byteOffset":1111040,
			"target":34962
		},
		{
			"buffer":0,
			"byteLength":23808,
			"byteOffset":1134848,
			"target":34962
		},
		{
			"buffer":0,
			"byteLength":15872,
			"byteOffset":1158656,
			"target":34962
		},
		{
			"buffer":0,
			"byteLength":5760,
			"byteOffset":1174528,
			"target":34963
		},
		{
			"buffer":0,
			"byteLength":23808,
			"byteOffset":1180288,
			"target":34962
		},
		{
			"buffer":0,
			"byteLength":23808,
			"byteOffset":1204096,
			"target":34962
		},
		{
			"buffer":0,
			"byteLength":15872,
			"byteOffset":1227904,
			"target":34962
		},
		{
			"buffer":0,
			"byteLength":5760,
			"byteOffset":1243776,
			"target":34963
		},
		{
			"buffer":0,
			"byteLength":95232,
			"byteOffset":1249536,
			"target":34962
		},
		{
			"buffer":0,
			"byteLength":95232,
			"byteOffset":1344768,
			"target":34962
		},
		{
			"buffer":0,
			"byteLength":63488,
			"byteOffset":1440000,
			"target":34962
		},
		{
			"buffer":0,
			"byteLength":23808,
			"byteOffset":1503488,
			"target":34963
		},
		{
			"buffer":0,
			"byteLength":23808,
			"byteOffset":1527296,
			"target":34962
		},
		{
			"buffer":0,
			"byteLength":23808,
			"byteOffset":1551104,
			"target":34962
		},
		{
			"buffer":0,
			"byteLength":15872,
			"byteOffset":1574912,
			"target":34962
		},
		{
			"buffer":0,
			"byteLength":5760,
			"byteOffset":1590784,
			"target":34963
		},
		{
			"buffer":0,
			"byteLength":95232,
			"byteOffset":1596544,
			"target":34962
		},
		{
			"buffer":0,
			"byteLength":95232,
			"byteOffset":1691776,
			"target":34962
		},
		{
			"buffer":0,
			"byteLength":63488,
			"byteOffset":1787008,
			"target":34962
		},
		{
			"buffer":0,
			"byteLength":23808,
			"byteOffset":1850496,
			"target":34963
		},
		{
			"buffer":0,
			"byteLength":104928,
			"byteOffset":1874304,
			"target":34962
		},
		{
			"buffer":0,
			"byteLength":104928,
			"byteOffset":1979232,
			"target":34962
		},
		{
			"buffer":0,
			"byteLength":69952,
			"byteOffset":2084160,
			"target":34962
		},
		{
			"buffer":0,
			"byteLength":26880,
			"byteOffset":2154112,
			"target":34963
		},
		{
			"buffer":0,
			"byteLength":23808,
			"byteOffset":2180992,
			"target":34962
		},
		{
			"buffer":0,
			"byteLength":23808,
			"byteOffset":2204800,
			"target":34962
		},
		{
			"buffer":0,
			"byteLength":15872,
			"byteOffset":2228608,
			"target":34962
		},
		{
			"buffer":0,
			"byteLength":5760,
			"byteOffset":2244480,
			"target":34963
		},
		{
			"buffer":0,
			"byteLength":23808,
			"byteOffset":2250240,
			"target":34962
		},
		{
			"buffer":0,
			"byteLength":23808,
			"byteOffset":2274048,
			"target":34962
		},
		{
			"buffer":0,
			"byteLength":15872,
			"byteOffset":2297856,
			"target":34962
		},
		{
			"buffer":0,
			"byteLength":5760,
			"byteOffset":2313728,
			"target":34963
		},
		{
			"buffer":0,
			"byteLength":23808,
			"byteOffset":2319488,
			"target":34962
		},
		{
			"buffer":0,
			"byteLength":23808,
			"byteOffset":2343296,
			"target":34962
		},
		{
			"buffer":0,
			"byteLength":15872,
			"byteOffset":2367104,
			"target":34962
		},
		{
			"buffer":0,
			"byteLength":5760,
			"byteOffset":2382976,
			"target":34963
		}
	],
	"samplers":[
		{
			"magFilter":9729,
			"minFilter":9987
		}
	],
	"buffers":[
		{
			"byteLength":2388736,
			"uri":"sistema13.bin"
		}
	]
}
